<svg id="my-svg" width="358px" height="44px" viewBox="0 0 358 44" version="1.1" xmlns="http://www.w3.org/2000/svg" xmlns:xlink="http://www.w3.org/1999/xlink">
  <!-- Generator: Sketch 46.1 (44463) - http://www.bohemiancoding.com/sketch -->
  <defs></defs>
  <g id="Page-1" stroke="none" stroke-width="1" fill="none" fill-rule="evenodd">
      <g id="co-logo-white">
          <svg:rect id="Rectangle" stroke="#FFFFFF" stroke-width="6" x="3" y="3" width="86" height="38"></rect>

          <svg:path d="M108.025,3.14 C107.794999,2.8599986 107.512502,2.64500075 107.1775,2.495 C106.842498,2.34499925 106.455002,2.27 106.015,2.27 C105.574998,2.27 105.167502,2.35499915 104.7925,2.525 C104.417498,2.69500085 104.092501,2.93249848 103.8175,3.2375 C103.542499,3.54250153 103.327501,3.9049979 103.1725,4.325 C103.017499,4.7450021 102.94,5.19999755 102.94,5.69 C102.94,6.1900025 103.017499,6.64749792 103.1725,7.0625 C103.327501,7.47750208 103.539999,7.83749848 103.81,8.1425 C104.080001,8.44750153 104.397498,8.68499915 104.7625,8.855 C105.127502,9.02500085 105.519998,9.11 105.94,9.11 C106.420002,9.11 106.844998,9.010001 107.215,8.81 C107.585002,8.609999 107.889999,8.3300018 108.13,7.97 L110.08,9.425 C109.629998,10.0550031 109.060003,10.5199985 108.37,10.82 C107.679997,11.1200015 106.970004,11.27 106.24,11.27 C105.409996,11.27 104.645004,11.1400013 103.945,10.88 C103.244996,10.6199987 102.640003,10.2475024 102.13,9.7625 C101.619997,9.27749758 101.222501,8.69000345 100.9375,8 C100.652499,7.30999655 100.51,6.54000425 100.51,5.69 C100.51,4.83999575 100.652499,4.07000345 100.9375,3.38 C101.222501,2.68999655 101.619997,2.10250243 102.13,1.6175 C102.640003,1.13249757 103.244996,0.7600013 103.945,0.5 C104.645004,0.2399987 105.409996,0.11 106.24,0.11 C106.540002,0.11 106.852498,0.137499725 107.1775,0.1925 C107.502502,0.247500275 107.822498,0.3349994 108.1375,0.455 C108.452502,0.5750006 108.754999,0.734999 109.045,0.935 C109.335001,1.135001 109.594999,1.37999855 109.825,1.67 L108.025,3.14 Z M110.785,5.69 C110.785,4.83999575 110.927499,4.07000345 111.2125,3.38 C111.497501,2.68999655 111.894997,2.10250243 112.405,1.6175 C112.915003,1.13249757 113.519996,0.7600013 114.22,0.5 C114.920004,0.2399987 115.684996,0.11 116.515,0.11 C117.345004,0.11 118.109996,0.2399987 118.81,0.5 C119.510004,0.7600013 120.114997,1.13249757 120.625,1.6175 C121.135003,2.10250243 121.532499,2.68999655 121.8175,3.38 C122.102501,4.07000345 122.245,4.83999575 122.245,5.69 C122.245,6.54000425 122.102501,7.30999655 121.8175,8 C121.532499,8.69000345 121.135003,9.27749758 120.625,9.7625 C120.114997,10.2475024 119.510004,10.6199987 118.81,10.88 C118.109996,11.1400013 117.345004,11.27 116.515,11.27 C115.684996,11.27 114.920004,11.1400013 114.22,10.88 C113.519996,10.6199987 112.915003,10.2475024 112.405,9.7625 C111.894997,9.27749758 111.497501,8.69000345 111.2125,8 C110.927499,7.30999655 110.785,6.54000425 110.785,5.69 Z M113.215,5.69 C113.215,6.1900025 113.292499,6.64749792 113.4475,7.0625 C113.602501,7.47750208 113.824999,7.83749848 114.115,8.1425 C114.405001,8.44750153 114.752498,8.68499915 115.1575,8.855 C115.562502,9.02500085 116.014997,9.11 116.515,9.11 C117.015003,9.11 117.467498,9.02500085 117.8725,8.855 C118.277502,8.68499915 118.624999,8.44750153 118.915,8.1425 C119.205001,7.83749848 119.427499,7.47750208 119.5825,7.0625 C119.737501,6.64749792 119.815,6.1900025 119.815,5.69 C119.815,5.19999755 119.737501,4.7450021 119.5825,4.325 C119.427499,3.9049979 119.205001,3.54250153 118.915,3.2375 C118.624999,2.93249848 118.277502,2.69500085 117.8725,2.525 C117.467498,2.35499915 117.015003,2.27 116.515,2.27 C116.014997,2.27 115.562502,2.35499915 115.1575,2.525 C114.752498,2.69500085 114.405001,2.93249848 114.115,3.2375 C113.824999,3.54250153 113.602501,3.9049979 113.4475,4.325 C113.292499,4.7450021 113.215,5.19999755 113.215,5.69 Z M123.925,0.38 L126.265,0.38 L126.265,8.84 L130.6,8.84 L130.6,11 L123.925,11 L123.925,0.38 Z M131.98,0.38 L134.32,0.38 L134.32,8.84 L138.655,8.84 L138.655,11 L131.98,11 L131.98,0.38 Z M140.035,0.38 L147.25,0.38 L147.25,2.54 L142.375,2.54 L142.375,4.52 L146.98,4.52 L146.98,6.68 L142.375,6.68 L142.375,8.84 L147.52,8.84 L147.52,11 L140.035,11 L140.035,0.38 Z M156.34,3.14 C156.109999,2.8599986 155.827502,2.64500075 155.4925,2.495 C155.157498,2.34499925 154.770002,2.27 154.33,2.27 C153.889998,2.27 153.482502,2.35499915 153.1075,2.525 C152.732498,2.69500085 152.407501,2.93249848 152.1325,3.2375 C151.857499,3.54250153 151.642501,3.9049979 151.4875,4.325 C151.332499,4.7450021 151.255,5.19999755 151.255,5.69 C151.255,6.1900025 151.332499,6.64749792 151.4875,7.0625 C151.642501,7.47750208 151.854999,7.83749848 152.125,8.1425 C152.395001,8.44750153 152.712498,8.68499915 153.0775,8.855 C153.442502,9.02500085 153.834998,9.11 154.255,9.11 C154.735002,9.11 155.159998,9.010001 155.53,8.81 C155.900002,8.609999 156.204999,8.3300018 156.445,7.97 L158.395,9.425 C157.944998,10.0550031 157.375003,10.5199985 156.685,10.82 C155.994997,11.1200015 155.285004,11.27 154.555,11.27 C153.724996,11.27 152.960003,11.1400013 152.26,10.88 C151.559997,10.6199987 150.955003,10.2475024 150.445,9.7625 C149.934997,9.27749758 149.537501,8.69000345 149.2525,8 C148.967499,7.30999655 148.825,6.54000425 148.825,5.69 C148.825,4.83999575 148.967499,4.07000345 149.2525,3.38 C149.537501,2.68999655 149.934997,2.10250243 150.445,1.6175 C150.955003,1.13249757 151.559997,0.7600013 152.26,0.5 C152.960003,0.2399987 153.724996,0.11 154.555,0.11 C154.855002,0.11 155.167498,0.137499725 155.4925,0.1925 C155.817502,0.247500275 156.137498,0.3349994 156.4525,0.455 C156.767502,0.5750006 157.069999,0.734999 157.36,0.935 C157.650001,1.135001 157.909999,1.37999855 158.14,1.67 L156.34,3.14 Z M161.725,2.45 L158.695,2.45 L158.695,0.38 L167.095,0.38 L167.095,2.45 L164.065,2.45 L164.065,11 L161.725,11 L161.725,2.45 Z M168.25,0.38 L170.59,0.38 L170.59,11 L168.25,11 L168.25,0.38 Z M171.67,0.38 L174.34,0.38 L176.965,7.34 L176.995,7.34 L179.665,0.38 L182.17,0.38 L177.79,11 L175.915,11 L171.67,0.38 Z M183.37,0.38 L190.585,0.38 L190.585,2.54 L185.71,2.54 L185.71,4.52 L190.315,4.52 L190.315,6.68 L185.71,6.68 L185.71,8.84 L190.855,8.84 L190.855,11 L183.37,11 L183.37,0.38 Z" id="COLLECTIVE" [attr.fill]="collective.fill" [attr.stroke]="collective.stroke" stroke-width="1"></path>
          
          <svg:path d="M125.655,43 L117.735,43 L117.735,39.37 L117.625,39.37 C117.331665,39.8833359 116.955836,40.3966641 116.4975,40.91 C116.039164,41.4233359 115.480003,41.8816646 114.82,42.285 C114.159997,42.6883353 113.408338,43.0183321 112.565,43.275 C111.721662,43.5316679 110.805005,43.66 109.815,43.66 C107.72499,43.66 106.029173,43.3391699 104.7275,42.6975 C103.425827,42.0558301 102.417504,41.1666723 101.7025,40.03 C100.987496,38.8933276 100.510835,37.5550077 100.2725,36.015 C100.034165,34.4749923 99.915,32.8066756 99.915,31.01 L99.915,16.27 L108.165,16.27 L108.165,29.36 C108.165,30.1300039 108.1925,30.9274959 108.2475,31.7525 C108.3025,32.5775041 108.467499,33.3383299 108.7425,34.035 C109.017501,34.7316701 109.439164,35.2999978 110.0075,35.74 C110.575836,36.1800022 111.391661,36.4 112.455,36.4 C113.518339,36.4 114.379997,36.2075019 115.04,35.8225 C115.700003,35.4374981 116.204165,34.9241699 116.5525,34.2825 C116.900835,33.6408301 117.129999,32.9166707 117.24,32.11 C117.350001,31.3033293 117.405,30.4600044 117.405,29.58 L117.405,16.27 L125.655,16.27 L125.655,43 Z M128.485,16.27 L136.405,16.27 L136.405,19.9 L136.515,19.9 C136.771668,19.3866641 137.138331,18.8733359 137.615,18.36 C138.091669,17.8466641 138.659997,17.3883354 139.32,16.985 C139.980003,16.5816646 140.731662,16.2516679 141.575,15.995 C142.418338,15.7383321 143.334995,15.61 144.325,15.61 C146.41501,15.61 148.10166,15.9308301 149.385,16.5725 C150.66834,17.2141699 151.667496,18.1033276 152.3825,19.24 C153.097504,20.3766724 153.583332,21.7149923 153.84,23.255 C154.096668,24.7950077 154.225,26.4633243 154.225,28.26 L154.225,43 L145.975,43 L145.975,29.91 C145.975,29.1399962 145.9475,28.3425041 145.8925,27.5175 C145.8375,26.6924959 145.672501,25.9316701 145.3975,25.235 C145.122499,24.5383299 144.700836,23.9700022 144.1325,23.53 C143.564164,23.0899978 142.748339,22.87 141.685,22.87 C140.621661,22.87 139.760003,23.0624981 139.1,23.4475 C138.439997,23.8325019 137.935835,24.3458301 137.5875,24.9875 C137.239165,25.6291699 137.010001,26.3533293 136.9,27.16 C136.789999,27.9666707 136.735,28.8099956 136.735,29.69 L136.735,43 L128.485,43 L128.485,16.27 Z M175.15,24.905 C174.746665,24.3183304 174.178337,23.8325019 173.445,23.4475 C172.711663,23.0624981 171.923338,22.87 171.08,22.87 C168.98999,22.87 167.367506,23.4933271 166.2125,24.74 C165.057494,25.9866729 164.48,27.6183233 164.48,29.635 C164.48,31.6516767 165.057494,33.2833271 166.2125,34.53 C167.367506,35.7766729 168.98999,36.4 171.08,36.4 C171.996671,36.4 172.784997,36.1983353 173.445,35.795 C174.105003,35.3916646 174.673331,34.9150027 175.15,34.365 L180.595,40.085 C179.31166,41.4050066 177.799175,42.3308307 176.0575,42.8625 C174.315825,43.3941693 172.656675,43.66 171.08,43.66 C169.026656,43.66 167.092509,43.3300033 165.2775,42.67 C163.462491,42.0099967 161.88584,41.0658395 160.5475,39.8375 C159.20916,38.6091605 158.155004,37.1333419 157.385,35.41 C156.614996,33.6866581 156.23,31.7616773 156.23,29.635 C156.23,27.5083227 156.614996,25.5833419 157.385,23.86 C158.155004,22.1366581 159.20916,20.6608395 160.5475,19.4325 C161.88584,18.2041605 163.462491,17.2600033 165.2775,16.6 C167.092509,15.9399967 169.026656,15.61 171.08,15.61 C172.656675,15.61 174.315825,15.8758307 176.0575,16.4075 C177.799175,16.9391693 179.31166,17.8649934 180.595,19.185 L175.15,24.905 Z M179.575,29.635 C179.575,27.5083227 179.959996,25.5833419 180.73,23.86 C181.500004,22.1366581 182.55416,20.6608395 183.8925,19.4325 C185.23084,18.2041605 186.807491,17.2600033 188.6225,16.6 C190.437509,15.9399967 192.371656,15.61 194.425,15.61 C196.478344,15.61 198.412491,15.9399967 200.2275,16.6 C202.042509,17.2600033 203.61916,18.2041605 204.9575,19.4325 C206.29584,20.6608395 207.349996,22.1366581 208.12,23.86 C208.890004,25.5833419 209.275,27.5083227 209.275,29.635 C209.275,31.7616773 208.890004,33.6866581 208.12,35.41 C207.349996,37.1333419 206.29584,38.6091605 204.9575,39.8375 C203.61916,41.0658395 202.042509,42.0099967 200.2275,42.67 C198.412491,43.3300033 196.478344,43.66 194.425,43.66 C192.371656,43.66 190.437509,43.3300033 188.6225,42.67 C186.807491,42.0099967 185.23084,41.0658395 183.8925,39.8375 C182.55416,38.6091605 181.500004,37.1333419 180.73,35.41 C179.959996,33.6866581 179.575,31.7616773 179.575,29.635 Z M187.825,29.635 C187.825,31.6516767 188.402494,33.2833271 189.5575,34.53 C190.712506,35.7766729 192.33499,36.4 194.425,36.4 C196.51501,36.4 198.137494,35.7766729 199.2925,34.53 C200.447506,33.2833271 201.025,31.6516767 201.025,29.635 C201.025,27.6183233 200.447506,25.9866729 199.2925,24.74 C198.137494,23.4933271 196.51501,22.87 194.425,22.87 C192.33499,22.87 190.712506,23.4933271 189.5575,24.74 C188.402494,25.9866729 187.825,27.6183233 187.825,29.635 Z M211.115,16.27 L219.035,16.27 L219.035,19.9 L219.145,19.9 C219.401668,19.3866641 219.768331,18.8733359 220.245,18.36 C220.721669,17.8466641 221.289997,17.3883354 221.95,16.985 C222.610003,16.5816646 223.361662,16.2516679 224.205,15.995 C225.048338,15.7383321 225.964995,15.61 226.955,15.61 C228.825009,15.61 230.484159,15.9949961 231.9325,16.765 C233.380841,17.5350039 234.471663,18.7449918 235.205,20.395 C236.158338,18.671658 237.313327,17.443337 238.67,16.71 C240.026673,15.976663 241.69499,15.61 243.675,15.61 C245.471676,15.61 246.984161,15.912497 248.2125,16.5175 C249.440839,17.122503 250.412496,17.9474948 251.1275,18.9925 C251.842504,20.0375052 252.355832,21.2658263 252.6675,22.6775 C252.979168,24.0891737 253.135,25.6016586 253.135,27.215 L253.135,43 L244.885,43 L244.885,27.435 C244.885,26.1883271 244.619169,25.1158378 244.0875,24.2175 C243.555831,23.3191622 242.611673,22.87 241.255,22.87 C240.301662,22.87 239.50417,23.0258318 238.8625,23.3375 C238.22083,23.6491682 237.707502,24.0799972 237.3225,24.63 C236.937498,25.1800028 236.662501,25.821663 236.4975,26.555 C236.332499,27.288337 236.25,28.0583293 236.25,28.865 L236.25,43 L228,43 L228,28.865 C228,28.3883309 227.981667,27.8016702 227.945,27.105 C227.908333,26.4083298 227.780001,25.7483364 227.56,25.125 C227.339999,24.5016636 226.982502,23.9700022 226.4875,23.53 C225.992498,23.0899978 225.268338,22.87 224.315,22.87 C223.251661,22.87 222.390003,23.0624981 221.73,23.4475 C221.069997,23.8325019 220.565835,24.3458301 220.2175,24.9875 C219.869165,25.6291699 219.640001,26.3533293 219.53,27.16 C219.419999,27.9666707 219.365,28.8099956 219.365,29.69 L219.365,43 L211.115,43 L211.115,16.27 Z M255.965,16.27 L263.885,16.27 L263.885,19.9 L263.995,19.9 C264.251668,19.3866641 264.618331,18.8733359 265.095,18.36 C265.571669,17.8466641 266.139997,17.3883354 266.8,16.985 C267.460003,16.5816646 268.211662,16.2516679 269.055,15.995 C269.898338,15.7383321 270.814995,15.61 271.805,15.61 C273.675009,15.61 275.334159,15.9949961 276.7825,16.765 C278.230841,17.5350039 279.321663,18.7449918 280.055,20.395 C281.008338,18.671658 282.163327,17.443337 283.52,16.71 C284.876673,15.976663 286.54499,15.61 288.525,15.61 C290.321676,15.61 291.834161,15.912497 293.0625,16.5175 C294.290839,17.122503 295.262496,17.9474948 295.9775,18.9925 C296.692504,20.0375052 297.205832,21.2658263 297.5175,22.6775 C297.829168,24.0891737 297.985,25.6016586 297.985,27.215 L297.985,43 L289.735,43 L289.735,27.435 C289.735,26.1883271 289.469169,25.1158378 288.9375,24.2175 C288.405831,23.3191622 287.461673,22.87 286.105,22.87 C285.151662,22.87 284.35417,23.0258318 283.7125,23.3375 C283.07083,23.6491682 282.557502,24.0799972 282.1725,24.63 C281.787498,25.1800028 281.512501,25.821663 281.3475,26.555 C281.182499,27.288337 281.1,28.0583293 281.1,28.865 L281.1,43 L272.85,43 L272.85,28.865 C272.85,28.3883309 272.831667,27.8016702 272.795,27.105 C272.758333,26.4083298 272.630001,25.7483364 272.41,25.125 C272.189999,24.5016636 271.832502,23.9700022 271.3375,23.53 C270.842498,23.0899978 270.118338,22.87 269.165,22.87 C268.101661,22.87 267.240003,23.0624981 266.58,23.4475 C265.919997,23.8325019 265.415835,24.3458301 265.0675,24.9875 C264.719165,25.6291699 264.490001,26.3533293 264.38,27.16 C264.269999,27.9666707 264.215,28.8099956 264.215,29.69 L264.215,43 L255.965,43 L255.965,16.27 Z M299.825,29.635 C299.825,27.5083227 300.209996,25.5833419 300.98,23.86 C301.750004,22.1366581 302.80416,20.6608395 304.1425,19.4325 C305.48084,18.2041605 307.057491,17.2600033 308.8725,16.6 C310.687509,15.9399967 312.621656,15.61 314.675,15.61 C316.728344,15.61 318.662491,15.9399967 320.4775,16.6 C322.292509,17.2600033 323.86916,18.2041605 325.2075,19.4325 C326.54584,20.6608395 327.599996,22.1366581 328.37,23.86 C329.140004,25.5833419 329.525,27.5083227 329.525,29.635 C329.525,31.7616773 329.140004,33.6866581 328.37,35.41 C327.599996,37.1333419 326.54584,38.6091605 325.2075,39.8375 C323.86916,41.0658395 322.292509,42.0099967 320.4775,42.67 C318.662491,43.3300033 316.728344,43.66 314.675,43.66 C312.621656,43.66 310.687509,43.3300033 308.8725,42.67 C307.057491,42.0099967 305.48084,41.0658395 304.1425,39.8375 C302.80416,38.6091605 301.750004,37.1333419 300.98,35.41 C300.209996,33.6866581 299.825,31.7616773 299.825,29.635 Z M308.075,29.635 C308.075,31.6516767 308.652494,33.2833271 309.8075,34.53 C310.962506,35.7766729 312.58499,36.4 314.675,36.4 C316.76501,36.4 318.387494,35.7766729 319.5425,34.53 C320.697506,33.2833271 321.275,31.6516767 321.275,29.635 C321.275,27.6183233 320.697506,25.9866729 319.5425,24.74 C318.387494,23.4933271 316.76501,22.87 314.675,22.87 C312.58499,22.87 310.962506,23.4933271 309.8075,24.74 C308.652494,25.9866729 308.075,27.6183233 308.075,29.635 Z M331.365,16.27 L339.285,16.27 L339.285,19.9 L339.395,19.9 C339.651668,19.3866641 340.018331,18.8733359 340.495,18.36 C340.971669,17.8466641 341.539997,17.3883354 342.2,16.985 C342.860003,16.5816646 343.611662,16.2516679 344.455,15.995 C345.298338,15.7383321 346.214995,15.61 347.205,15.61 C349.29501,15.61 350.98166,15.9308301 352.265,16.5725 C353.54834,17.2141699 354.547496,18.1033276 355.2625,19.24 C355.977504,20.3766724 356.463332,21.7149923 356.72,23.255 C356.976668,24.7950077 357.105,26.4633243 357.105,28.26 L357.105,43 L348.855,43 L348.855,29.91 C348.855,29.1399962 348.8275,28.3425041 348.7725,27.5175 C348.7175,26.6924959 348.552501,25.9316701 348.2775,25.235 C348.002499,24.5383299 347.580836,23.9700022 347.0125,23.53 C346.444164,23.0899978 345.628339,22.87 344.565,22.87 C343.501661,22.87 342.640003,23.0624981 341.98,23.4475 C341.319997,23.8325019 340.815835,24.3458301 340.4675,24.9875 C340.119165,25.6291699 339.890001,26.3533293 339.78,27.16 C339.669999,27.9666707 339.615,28.8099956 339.615,29.69 L339.615,43 L331.365,43 L331.365,16.27 Z" id="uncommon" [attr.fill]="uncommon.fill" [attr.stroke]="uncommon.stroke"></path>
      </g>
  </g>
</svg>